<?xml version="1.0" encoding="UTF-8"?>
<svg id="Layer_1" data-name="Layer 1" xmlns="http://www.w3.org/2000/svg" viewBox="0 0 30 30">
  <path d="M15,.82C7.18.82.82,7.18.82,15s6.36,14.18,14.18,14.18,14.18-6.36,14.18-14.18S22.82.82,15,.82ZM15,26.79c-6.5,0-11.79-5.29-11.79-11.79S8.5,3.21,15,3.21s11.79,5.29,11.79,11.79-5.29,11.79-11.79,11.79Z"/>
  <path d="M15,6.15c-2.83,0-5.13,2.3-5.13,5.13,0,.66.53,1.19,1.19,1.19s1.19-.53,1.19-1.19c0-1.51,1.23-2.74,2.74-2.74s2.74,1.23,2.74,2.74-1.23,2.74-2.74,2.74c-.66,0-1.19.53-1.19,1.19v2.7c0,.66.53,1.19,1.19,1.19s1.19-.53,1.19-1.19v-1.64c2.26-.54,3.94-2.57,3.94-4.99,0-2.83-2.3-5.13-5.13-5.13Z"/>
  <circle cx="15" cy="21.96" r="1.67"/>
</svg>