<svg id="Layer_1" xmlns="http://www.w3.org/2000/svg" width="20" height="20" xmlns:xlink="http://www.w3.org/1999/xlink" viewBox="0 0 19 19">
  <defs>
    <linearGradient id="linear-gradient" x1="12.49" y1="7.79" x2="13.67" y2="5.55" gradientUnits="userSpaceOnUse">
      <stop offset="0" stop-color="currentColor" stop-opacity=".8"/>
      <stop offset="1" stop-color="currentColor"/>
    </linearGradient>
    <linearGradient id="linear-gradient-2" x1="15.63" y1="8.32" x2="13.06" y2="10.89" gradientUnits="userSpaceOnUse">
      <stop offset="0" stop-color="currentColor"/>
      <stop offset="1" stop-color="currentColor"/>
    </linearGradient>
  </defs>
  <g>
    <circle cx="8.97" cy="15.38" r="1" fill="currentColor"/>
    <circle cx="15.32" cy="15.38" r="1" fill="currentColor"/>
  </g>
  <path d="M15.91,9.78l.37.02c.06,0,.11.01.17.02-.07-.03-.15-.04-.24-.04h-.3Z" fill="currentColor"/>
  <path d="M11.51,7.36c.21.06.42.09.63.11-.22-.08-.39-.26-.46-.5-.03-.14-.02-.27,0-.41.07-.41.3-.6.71-.6,1.37,0,2.74,0,4.11,0,.66,0,1.17-.28,1.57-.78.3-.37.48-.8.6-1.26.08-.29.08-.29-.22-.29-2.17,0-4.34,0-6.51,0-.22,0-.44.02-.65.08-.54.13-.99.41-1.33.85-.3.39-.47.83-.55,1.28.49.73,1.18,1.25,2.09,1.53Z" fill="url(#linear-gradient)"/>
  <path d="M9.77,9.71c-1.37,0-3.43,0-4.81,0-.66,0-1.17-.28-1.57-.78-.3-.37-.48-.8-.6-1.26-.08-.29-.08-.29.22-.29,2.17,0,3.42,0,5.58,0,0,0,0,.47.27,1.11s.9,1.23.9,1.23Z" fill="currentColor"/>
  <path d="M8.59,6.67c-1.37,0-4.25,0-5.63,0-.66,0-1.17-.28-1.57-.78-.3-.37-.48-.8-.6-1.26-.08-.29-.08-.29.22-.29,2.17,0,6.04,0,8.21,0,0,0-.32.36-.52,1.17-.13.54-.12,1.16-.12,1.16Z" fill="currentColor"/>
  <path d="M17.08,9.94c-.21-.06-.42-.09-.63-.11.22.08.39.26.46.5.03.14.02.27,0,.41-.07.41-.3.6-.71.6-1.02,0-3.01,0-4.53,0h0c-.2,0-.4,0-.6,0-.29,0-.54,0-.76,0-.04,0-.07,0-.11,0-1.61,0-3.15,0-4.82,0-.3,0-.3,0-.22.29.12.46.3.89.6,1.26.4.5.91.78,1.57.78,1.37,0,2.96,0,4.34,0h0c1.79,0,3.69,0,4.97,0,.22,0,.44-.02.65-.08.54-.13.99-.41,1.33-.85.3-.39.47-.83.55-1.28-.49-.73-1.18-1.25-2.09-1.53Z" fill="url(#linear-gradient-2)"/>
  <path d="M12.68,7.51c-.12,0-.25-.02-.37-.02-.06,0-.11-.01-.17-.02.07.03.15.04.24.04h.3Z" fill="currentColor"/>
  <path d="M18.81,8.96c-.33-.61-.81-1.05-1.49-1.24-.28-.08-.58-.12-.87-.12-.59,0-1.18,0-1.77,0-.61-.01-1.21-.04-1.82-.07-.06,0-.12,0-.18-.01h-.3c-.08,0-.16-.01-.24-.04-.21-.02-.43-.05-.63-.11-.91-.28-1.6-.8-2.09-1.53-.06.32-.08.65-.07.98.01.53.17,1.05.43,1.52.33.61.81,1.05,1.49,1.24.28.08.58.12.87.12.59,0,1.18,0,1.77,0,.61.01,1.21.04,1.82.07.06,0,.12,0,.18.01h.3c.08,0,.16.01.24.04.21.02.43.05.63.11.91.28,1.6.8,2.09,1.53.06-.32.08-.65.07-.98-.01-.53-.17-1.05-.43-1.52Z" fill="currentColor"/>
</svg>