<?xml version="1.0" encoding="UTF-8"?>
<svg id="Layer_1" xmlns="http://www.w3.org/2000/svg" width="60" height="60" xmlns:xlink="http://www.w3.org/1999/xlink" viewBox="0 0 60 60">
  <defs>
    <filter id="drop-shadow-1" x="-13.5" y="-13.5" width="91" height="91" filterUnits="userSpaceOnUse">
      <feOffset dx="2" dy="2"/>
      <feGaussianBlur result="blur" stdDeviation="5"/>
      <feFlood flood-color="#000" flood-opacity=".1"/>
      <feComposite in2="blur" operator="in"/>
      <feComposite in="SourceGraphic"/>
    </filter>
    <linearGradient id="linear-gradient" x1="36.51" y1="26.23" x2="39.59" y2="20.37" gradientUnits="userSpaceOnUse">
      <stop offset="0" stop-color="#dab628"/>
      <stop offset="1" stop-color="#fddc2e"/>
    </linearGradient>
    <linearGradient id="linear-gradient-2" x1="44.72" y1="27.61" x2="38" y2="34.34" gradientUnits="userSpaceOnUse">
      <stop offset="0" stop-color="#669940"/>
      <stop offset="1" stop-color="#78bc43"/>
    </linearGradient>
  </defs>
  <circle cx="30" cy="30" r="30" fill="#17537a" filter="url(#drop-shadow-1)"/>
  <g>
    <g>
      <circle cx="27.31" cy="46.06" r="2.62" fill="#78bc43"/>
      <circle cx="43.89" cy="46.06" r="2.62" fill="#78bc43"/>
    </g>
    <path d="M45.45,31.43l.97.06c.15.01.3.03.45.05-.19-.07-.4-.11-.63-.11h-.79Z" fill="#fddc2e"/>
    <path d="M33.94,25.1c.54.17,1.09.24,1.65.29-.58-.2-1.02-.69-1.19-1.32-.09-.36-.05-.71.01-1.08.18-1.08.77-1.58,1.86-1.58,3.59,0,7.16-.01,10.75,0,1.73,0,3.05-.73,4.11-2.04.78-.97,1.25-2.1,1.57-3.3.2-.75.21-.75-.58-.75-5.68,0-11.34,0-17.01-.01-.58-.01-1.15.06-1.71.2-1.41.35-2.59,1.07-3.48,2.23-.78,1.03-1.22,2.16-1.44,3.34,1.29,1.9,3.1,3.26,5.46,4Z" fill="url(#linear-gradient)"/>
    <path d="M29.39,31.25c-3.59,0-8.97-.01-12.56,0-1.73,0-3.05-.73-4.11-2.04-.78-.97-1.25-2.1-1.57-3.3-.2-.75-.21-.75.58-.75,5.68,0,8.93,0,14.59-.01,0,0,.02,1.22.71,2.89.7,1.67,2.35,3.21,2.35,3.21Z" fill="#fddc2e"/>
    <path d="M26.32,23.31c-3.59,0-11.12-.01-14.71,0-1.73,0-3.05-.73-4.11-2.04-.78-.97-1.25-2.1-1.57-3.3-.2-.75-.21-.75.58-.75,5.68,0,15.79,0,21.46-.01,0,0-.84.93-1.35,3.06-.34,1.42-.3,3.04-.3,3.04Z" fill="#fddc2e"/>
    <path d="M48.51,31.83c-.54-.17-1.09-.24-1.65-.3.58.2,1.02.69,1.19,1.32.09.36.05.71-.01,1.08-.18,1.08-.77,1.58-1.86,1.58-2.66,0-7.86,0-11.83,0h0c-.53,0-1.04,0-1.56,0-.75,0-1.42,0-1.98,0-.1,0-.19,0-.29,0-4.21,0-8.23,0-12.6,0-.79,0-.78,0-.58.75.32,1.2.78,2.32,1.57,3.3,1.06,1.31,2.38,2.05,4.11,2.04,3.59-.01,7.75,0,11.33,0h0c4.67,0,9.64,0,13,0,.58,0,1.15-.06,1.71-.2,1.41-.35,2.59-1.07,3.48-2.23.78-1.03,1.22-2.16,1.44-3.34-1.29-1.9-3.1-3.26-5.46-4Z" fill="url(#linear-gradient-2)"/>
    <path d="M37,25.5c-.32-.02-.64-.04-.97-.06-.15-.01-.3-.03-.45-.05.19.07.4.11.63.11h.79Z" fill="#fddc2e"/>
    <path d="M53.04,29.28c-.86-1.59-2.12-2.73-3.9-3.24-.74-.21-1.51-.3-2.28-.31-1.54,0-3.08.01-4.62-.02-1.59-.03-3.16-.1-4.75-.18-.16,0-.32-.02-.48-.03h-.79c-.22,0-.43-.04-.63-.11-.56-.05-1.11-.13-1.65-.29-2.37-.74-4.17-2.1-5.46-4-.16.84-.22,1.7-.19,2.57.03,1.4.45,2.74,1.14,3.98.86,1.59,2.12,2.73,3.9,3.24.74.21,1.51.3,2.28.31,1.54.01,3.08-.01,4.62.02,1.59.03,3.17.1,4.75.18.16,0,.32.02.48.03h.79c.22,0,.43.04.63.11.56.05,1.11.13,1.65.3,2.37.74,4.17,2.1,5.46,4,.16-.84.22-1.7.19-2.57-.03-1.4-.45-2.74-1.14-3.98Z" fill="#fddc2e"/>
  </g>
</svg>